/* XPM */
static char *result[] = {
/* columns rows colors chars-per-pixel */
"16 16 4 1 ",
"  c gray19",
". c #FF7F27",
"X c gray66",
"o c #F8F8F8",
/* pixels */
"................",
"................",
"......    ......",
"....  XXXX  ....",
"... XXXooXXX ...",
"... XXXooXXX ...",
".. XXXXXXXXXX ..",
".. XXXXXXXXXX ..",
".. ooXXXXXXoo ..",
".. oooooooooo ..",
"... oooooooo ...",
"... oooooooo ...",
"....  oooo  ....",
"......    ......",
"................",
"................"
};
